<svg clip-rule="evenodd" fill-rule="evenodd" stroke-linecap="round" stroke-linejoin="round" version="1.1" viewBox="0 0 750 750" xmlns="http://www.w3.org/2000/svg">
 <g id="box">
  <g stroke-linecap="round" stroke-linejoin="round">
   <path d="m194.88 444.54c-0.087 0.023-0.067 0.131-0.125 0.187-0.071 0.058-0.185 0.032-0.219 0.125-0.022 0.063 0.059 0.095 0.063 0.157-3e-3 0.051-0.077 0.07-0.063 0.125l60 224c0.019 0.07 0.115 0.041 0.156 0.093 0.043 0.071-0.015 0.178 0.063 0.219l120 64c0.067 0.036 0.123-0.033 0.187-0.062v-224.91h0.063l-179.84-63.937c-0.062-0.022-0.095 0.059-0.156 0.062-0.052-2e-3 -0.071-0.077-0.125-0.062z" fill="#4063d8" stroke="#4063d8"/>
   <path d="m375 508.48h0.062v224.91c0.065 0.029 0.121 0.098 0.188 0.062l120-64c0.078-0.041 0.021-0.148 0.062-0.219 0.042-0.052 0.138-0.022 0.157-0.093l60-224c0.014-0.055-0.06-0.074-0.063-0.125 4e-3 -0.062 0.085-0.094 0.063-0.157-0.034-0.093-0.148-0.067-0.219-0.125-0.058-0.057-0.037-0.164-0.125-0.187-0.054-0.015-0.073 0.06-0.125 0.062-0.061-3e-3 -0.094-0.084-0.156-0.062l-179.84 63.937z" fill="#3959bf" stroke="#3959bf"/>
  </g>
 </g>
 <g id="crop" stroke-linecap="round" stroke-linejoin="round">
  <g>
   <path d="m375 16.542c-0.23 0-0.463 0.1458-0.5 0.4375-0.081 0.645-41.419 329.57-41.5 330.22l0.031 0.219 41.5 132.09c0.065 0.205 0.234 0.288 0.407 0.312l0.468-462.75h0.094v-0.0938c-0.037-0.2917-0.27-0.4375-0.5-0.4375z" fill="#389826" stroke="#389826"/>
   <path d="m375.53 17.229-0.469 462.59c0.173-0.024 0.342-0.107 0.407-0.312l41.5-132.09 0.031-0.219-41.469-329.97z" fill="#2e8020" stroke="#2e8020"/>
  </g>
  <g>
   <path d="m589.76 202.1c-0.178-0.08-0.395-0.116-0.562 0.063l-155.38 166.22-0.063 0.125-51.812 110.81c-0.085 0.181-0.033 0.333 0.062 0.469l207.75-277.69z" fill="#9558b2" stroke="#9558b2"/>
   <path d="m589.85 202.17-207.81 277.72c0.145 0.138 0.382 0.207 0.594 0.093l103.56-55.375c0.095-0.051 0.141-0.121 0.187-0.218 0.203-0.433 103.42-221.22 103.62-221.66 0.109-0.233-5e-3 -0.429-0.156-0.562z" fill="#804b99" stroke="#804b99"/>
  </g>
  <g>
   <path d="m160.24 202.23c0.178-0.08 0.395-0.116 0.562 0.062l155.38 166.22 0.063 0.125 51.812 110.81c0.085 0.18 0.033 0.333-0.062 0.468l-207.75-277.69z" fill="#b3362d" stroke="#b3362d"/>
   <path d="m160.15 202.3 207.81 277.72c-0.145 0.138-0.382 0.207-0.594 0.094l-103.56-55.375c-0.095-0.051-0.141-0.121-0.187-0.219-0.203-0.433-103.42-221.22-103.62-221.66-0.109-0.234 5e-3 -0.43 0.156-0.563z" fill="#cb3c33" stroke="#cb3c33"/>
  </g>
 </g>
</svg>
