<?xml version="1.0" encoding="UTF-8" standalone="no"?>
<!DOCTYPE svg PUBLIC "-//W3C//DTD SVG 1.1//EN"
 "http://www.w3.org/Graphics/SVG/1.1/DTD/svg11.dtd">
<!-- Generated by graphviz version 2.50.0 (20211204.2007)
 -->
<!-- Pages: 1 -->
<svg width="243pt" height="125pt"
 viewBox="0.00 0.00 242.50 125.00" xmlns="http://www.w3.org/2000/svg" xmlns:xlink="http://www.w3.org/1999/xlink">
<g id="graph0" class="graph" transform="scale(1 1) rotate(0) translate(4 121)">
<polygon fill="white" stroke="transparent" points="-4,4 -4,-121 238.5,-121 238.5,4 -4,4"/>
<!-- 1 -->
<g id="node1" class="node">
<title>1</title>
<text text-anchor="middle" x="114" y="-9.8" font-family="Courier,monospace" font-size="9.00">PhenologyModel</text>
</g>
<!-- 2 -->
<g id="node2" class="node">
<title>2</title>
<text text-anchor="middle" x="31" y="-56.8" font-family="Courier,monospace" font-size="9.00">ThermalTime</text>
</g>
<!-- 2&#45;&gt;1 -->
<g id="edge1" class="edge">
<title>2&#45;&gt;1</title>
<path fill="none" stroke="black" stroke-width="0.2" stroke-dasharray="5,2" d="M42.19,-51.93C57.42,-43.68 84.6,-28.94 100.8,-20.16"/>
<polygon fill="black" stroke="black" stroke-width="0.2" points="101.29,-20.69 102.72,-19.12 100.63,-19.45 101.29,-20.69"/>
</g>
<!-- 3 -->
<g id="node3" class="node">
<title>3</title>
<text text-anchor="middle" x="139" y="-56.8" font-family="Courier,monospace" font-size="9.00">Weather</text>
</g>
<!-- 3&#45;&gt;1 -->
<g id="edge2" class="edge">
<title>3&#45;&gt;1</title>
<path fill="none" stroke="black" stroke-width="0.2" stroke-dasharray="5,2" d="M135.52,-51.74C131.12,-43.82 123.52,-30.13 118.63,-21.33"/>
<polygon fill="black" stroke="black" stroke-width="0.2" points="119.03,-20.61 117.45,-19.2 117.81,-21.29 119.03,-20.61"/>
</g>
<!-- 4 -->
<g id="node4" class="node">
<title>4</title>
<text text-anchor="middle" x="114" y="-102.8" font-family="Courier,monospace" font-size="9.00">Calendar</text>
</g>
<!-- 4&#45;&gt;1 -->
<g id="edge3" class="edge">
<title>4&#45;&gt;1</title>
<path fill="none" stroke="black" stroke-width="0.2" d="M112.94,-97.84C111.7,-90.34 109.74,-77.29 109,-66 107.97,-50.22 110.55,-31.87 112.37,-21.42"/>
<polygon fill="black" stroke="black" stroke-width="0.2" points="113.11,-21.28 112.77,-19.19 111.73,-21.04 113.11,-21.28"/>
</g>
<!-- 4&#45;&gt;3 -->
<g id="edge4" class="edge">
<title>4&#45;&gt;3</title>
<path fill="none" stroke="black" stroke-width="0.2" d="M117.48,-97.88C121.88,-90.13 129.48,-76.75 134.37,-68.15"/>
<polygon fill="black" stroke="black" stroke-width="0.2" points="135.17,-68.15 135.55,-66.07 133.96,-67.46 135.17,-68.15"/>
</g>
<!-- 5 -->
<g id="node5" class="node">
<title>5</title>
<text text-anchor="middle" x="206" y="-56.8" font-family="Courier,monospace" font-size="9.00">Controller</text>
</g>
<!-- 5&#45;&gt;1 -->
<g id="edge5" class="edge">
<title>5&#45;&gt;1</title>
<path fill="none" stroke="black" stroke-width="0.2" stroke-dasharray="5,2" d="M193.59,-51.93C176.72,-43.68 146.59,-28.94 128.63,-20.16"/>
<polygon fill="black" stroke="black" stroke-width="0.2" points="128.61,-19.37 126.5,-19.12 127.99,-20.62 128.61,-19.37"/>
</g>
</g>
</svg>
