<?xml version="1.0" encoding="UTF-8"?>
<svg xmlns="http://www.w3.org/2000/svg"
     xmlns:xlink="http://www.w3.org/1999/xlink"
     xmlns:gadfly="http://www.gadflyjl.org/ns"
     version="1.2"
     width="180mm" height="120mm" viewBox="0 0 180 120"
     stroke="none"
     fill="#000000"
     stroke-width="0.3"
     font-size="3.88"
>
<defs>
  <marker id="arrow" markerWidth="15" markerHeight="7" refX="5" refY="3.5" orient="auto" markerUnits="strokeWidth">
    <path d="M0,0 L15,3.5 L0,7 z" stroke="context-stroke" fill="context-stroke"/>
  </marker>
</defs>
<g stroke="#000000" stroke-opacity="0.000" fill="#FFFFFF" id="img-5da66f8d-1">
  <g transform="translate(90,60)">
    <path d="M-90,-60 L90,-60 90,60 -90,60  z" class="primitive"/>
  </g>
</g>
<g class="plotroot xscalable yscalable" id="img-5da66f8d-2">
  <g font-size="3.53" font-family="'PT Sans','Helvetica Neue','Helvetica',sans-serif" fill="#564A55" stroke="#000000" stroke-opacity="0.000" id="img-5da66f8d-3">
    <g transform="translate(91.22,113.72)">
      <g class="primitive">
        <text text-anchor="middle" dy="0.6em">DATE</text>
      </g>
    </g>
  </g>
  <g class="guide xlabels" font-size="2.82" font-family="'PT Sans Caption','Helvetica Neue','Helvetica',sans-serif" fill="#6C606B" id="img-5da66f8d-4">
    <g transform="translate(22.84,107.04)">
      <g class="primitive">
        <text text-anchor="middle" dy="0.6em">Jan 1, 1987</text>
      </g>
    </g>
    <g transform="translate(64.71,107.04)">
      <g class="primitive">
        <text text-anchor="middle" dy="0.6em">Apr</text>
      </g>
    </g>
    <g transform="translate(107.04,107.04)">
      <g class="primitive">
        <text text-anchor="middle" dy="0.6em">Jul</text>
      </g>
    </g>
    <g transform="translate(149.84,107.04)">
      <g class="primitive">
        <text text-anchor="middle" dy="0.6em">Oct</text>
      </g>
    </g>
  </g>
  <g class="guide colorkey" id="img-5da66f8d-5">
    <g fill="#4C404B" font-size="2.82" font-family="'PT Sans','Helvetica Neue','Helvetica',sans-serif" id="img-5da66f8d-6">
      <g transform="translate(166.09,52.31)" id="img-5da66f8d-7">
        <g class="primitive">
          <text dy="0.35em">Total</text>
        </g>
      </g>
      <g transform="translate(166.09,55.94)" id="img-5da66f8d-8">
        <g class="primitive">
          <text dy="0.35em">Canopy</text>
        </g>
      </g>
      <g transform="translate(166.09,59.56)" id="img-5da66f8d-9">
        <g class="primitive">
          <text dy="0.35em">Root</text>
        </g>
      </g>
      <g transform="translate(166.09,63.19)" id="img-5da66f8d-10">
        <g class="primitive">
          <text dy="0.35em">Fruit</text>
        </g>
      </g>
    </g>
    <g stroke-width="0.3" id="img-5da66f8d-11">
      <g stroke="#FFFFFF" stroke-opacity="0.000" fill-opacity="1" fill="#00B78D" id="img-5da66f8d-12">
        <g transform="translate(163.28,63.19)" id="img-5da66f8d-13">
          <circle cx="0" cy="0" r="0.7" class="primitive"/>
        </g>
      </g>
      <g stroke="#FFFFFF" stroke-opacity="0.000" fill-opacity="1" fill="#FF6DAE" id="img-5da66f8d-14">
        <g transform="translate(163.28,59.56)" id="img-5da66f8d-15">
          <circle cx="0" cy="0" r="0.7" class="primitive"/>
        </g>
      </g>
      <g stroke="#FFFFFF" stroke-opacity="0.000" fill-opacity="1" fill="#D4CA3A" id="img-5da66f8d-16">
        <g transform="translate(163.28,55.94)" id="img-5da66f8d-17">
          <circle cx="0" cy="0" r="0.7" class="primitive"/>
        </g>
      </g>
      <g stroke="#FFFFFF" stroke-opacity="0.000" fill-opacity="1" fill="#00BFFF" id="img-5da66f8d-18">
        <g transform="translate(163.28,52.31)" id="img-5da66f8d-19">
          <circle cx="0" cy="0" r="0.7" class="primitive"/>
        </g>
      </g>
    </g>
    <g fill="#362A35" font-size="3.18" font-family="'PT Sans','Helvetica Neue','Helvetica',sans-serif" stroke="#000000" stroke-opacity="0.000" id="img-5da66f8d-20">
      <g transform="translate(162.47,49)" id="img-5da66f8d-21">
        <g class="primitive">
          <text dy="-0em"></text>
        </g>
      </g>
    </g>
  </g>
  <g clip-path="url(#img-5da66f8d-22)">
    <g id="img-5da66f8d-23">
      <g pointer-events="visible" stroke-width="0.3" fill="#000000" fill-opacity="0.000" stroke="#000000" stroke-opacity="0.000" class="guide background" id="img-5da66f8d-24">
        <g transform="translate(91.22,55.52)" id="img-5da66f8d-25">
          <path d="M-70.24,-50.52 L70.24,-50.52 70.24,50.52 -70.24,50.52  z" class="primitive"/>
        </g>
      </g>
      <g class="guide ygridlines xfixed" stroke-dasharray="0.5,0.5" stroke-width="0.2" stroke="#D0D0E0" id="img-5da66f8d-26">
        <g transform="translate(91.22,104.04)" id="img-5da66f8d-27">
          <path fill="none" d="M-70.24,0 L70.24,0 " class="primitive"/>
        </g>
        <g transform="translate(91.22,63.17)" id="img-5da66f8d-28">
          <path fill="none" d="M-70.24,0 L70.24,0 " class="primitive"/>
        </g>
        <g transform="translate(91.22,22.29)" id="img-5da66f8d-29">
          <path fill="none" d="M-70.24,0 L70.24,0 " class="primitive"/>
        </g>
      </g>
      <g class="guide xgridlines yfixed" stroke-dasharray="0.5,0.5" stroke-width="0.2" stroke="#D0D0E0" id="img-5da66f8d-30">
        <g transform="translate(22.84,55.52)" id="img-5da66f8d-31">
          <path fill="none" d="M0,-50.52 L0,50.52 " class="primitive"/>
        </g>
        <g transform="translate(64.71,55.52)" id="img-5da66f8d-32">
          <path fill="none" d="M0,-50.52 L0,50.52 " class="primitive"/>
        </g>
        <g transform="translate(107.04,55.52)" id="img-5da66f8d-33">
          <path fill="none" d="M0,-50.52 L0,50.52 " class="primitive"/>
        </g>
        <g transform="translate(149.84,55.52)" id="img-5da66f8d-34">
          <path fill="none" d="M0,-50.52 L0,50.52 " class="primitive"/>
        </g>
      </g>
      <g class="plotpanel" id="img-5da66f8d-35">
        <metadata>
          <boundingbox value="20.97666666666666mm 5.0mm 140.49mm 101.04333333333335mm"/>
          <unitbox value="1986-12-28 1211.4632981829423 302 days -1235.9265963658847"/>
        </metadata>
        <g stroke-width="0.3" fill="#000000" fill-opacity="0.000" class="geometry" id="img-5da66f8d-36">
          <g class="color_LCHab{Float32}(70.0f0,60.0f0,240.0f0)" stroke-dasharray="none" stroke-opacity="1" stroke="#00BFFF" id="img-5da66f8d-37">
            <g transform="translate(90.99,81.65)" id="img-5da66f8d-38">
              <path fill="none" d="M-68.15,22.37 L-67.69,22.37 -67.22,22.37 -66.76,22.37 -66.29,22.37 -65.83,22.37 -65.36,22.37 -64.9,22.37 -64.43,22.37 -63.96,22.37 -63.5,22.37 -63.03,22.37 -62.57,22.37 -62.1,22.37 -61.64,22.37 -61.17,22.37 -60.71,22.37 -60.24,22.37 -59.78,22.37 -59.31,22.37 -58.85,22.37 -58.38,22.37 -57.92,22.37 -57.45,22.37 -56.99,22.37 -56.52,22.37 -56.06,22.37 -55.59,22.37 -55.13,22.37 -54.66,22.37 -54.2,22.37 -53.73,22.37 -53.27,22.37 -52.8,22.37 -52.33,22.37 -51.87,22.37 -51.4,22.37 -50.94,22.37 -50.47,22.37 -50.01,22.37 -49.54,22.37 -49.08,22.37 -48.61,22.37 -48.15,22.37 -47.68,22.37 -47.22,22.37 -46.75,22.37 -46.29,22.37 -45.82,22.37 -45.36,22.37 -44.89,22.37 -44.43,22.37 -43.96,22.37 -43.5,22.37 -43.03,22.37 -42.57,22.37 -42.1,22.37 -41.64,22.37 -41.17,22.37 -40.7,22.37 -40.24,22.37 -39.77,22.37 -39.31,22.37 -38.84,22.37 -38.38,22.37 -37.91,22.37 -37.45,22.37 -36.98,22.37 -36.52,22.37 -36.05,22.37 -35.59,22.37 -35.12,22.37 -34.66,22.37 -34.19,22.37 -33.73,22.37 -33.26,22.37 -32.8,22.37 -32.33,22.37 -31.87,22.37 -31.4,22.37 -30.94,22.37 -30.47,22.37 -30.01,22.37 -29.54,22.37 -29.07,22.37 -28.61,22.37 -28.14,22.37 -27.68,22.37 -27.21,22.37 -26.75,22.37 -26.28,22.37 -25.82,22.37 -25.35,22.37 -24.89,22.37 -24.42,22.37 -23.96,22.37 -23.49,22.37 -23.03,22.37 -22.56,22.37 -22.1,22.37 -21.63,22.37 -21.17,22.37 -20.7,22.37 -20.24,22.37 -19.77,22.37 -19.31,22.37 -18.84,22.37 -18.38,22.37 -17.91,22.37 -17.44,22.37 -16.98,22.37 -16.51,22.37 -16.05,22.37 -15.58,22.37 -15.12,22.37 -14.65,22.37 -14.19,22.37 -13.72,22.37 -13.26,22.37 -12.79,22.37 -12.33,22.37 -11.86,22.36 -11.4,22.34 -10.93,22.32 -10.47,22.3 -10,22.29 -9.54,22.27 -9.07,22.24 -8.61,22.22 -8.14,22.2 -7.68,22.18 -7.21,22.15 -6.75,22.12 -6.28,22.08 -5.81,22.06 -5.35,22 -4.88,21.94 -4.42,21.86 -3.95,21.78 -3.49,21.73 -3.02,21.57 -2.56,21.48 -2.09,21.32 -1.63,21.13 -1.16,20.89 -0.7,20.63 -0.23,20.35 0.23,20.13 0.7,19.86 1.16,19.55 1.63,19.22 2.09,18.93 2.56,18.58 3.02,18.26 3.49,17.94 3.95,17.78 4.42,17.55 4.88,17.25 5.35,16.88 5.81,16.53 6.28,16.15 6.75,15.83 7.21,15.55 7.68,15.29 8.14,15.08 8.61,14.91 9.07,14.57 9.54,14.25 10,13.98 10.47,13.76 10.93,13.48 11.4,13.27 11.86,13.09 12.33,12.91 12.79,12.67 13.26,12.3 13.72,11.98 14.19,11.73 14.65,11.45 15.12,10.98 15.58,10.62 16.05,10.01 16.51,9.4 16.98,8.89 17.44,8.29 17.91,7.69 18.38,7.24 18.84,6.57 19.31,5.94 19.77,5.41 20.24,4.96 20.7,4.34 21.17,3.56 21.63,2.83 22.1,2.04 22.56,1.72 23.03,1.41 23.49,0.53 23.96,-0.39 24.42,-1.03 24.89,-1.72 25.35,-2.35 25.82,-2.97 26.28,-4.02 26.75,-4.94 27.21,-5.81 27.68,-6.53 28.14,-7.45 28.61,-8.27 29.07,-9.25 29.54,-10.16 30.01,-10.89 30.47,-11.34 30.94,-12.15 31.4,-12.82 31.87,-13.49 32.33,-14.53 32.8,-15.33 33.26,-16.44 33.73,-17.5 34.19,-18.42 34.66,-19.28 35.12,-19.98 35.59,-20.93 36.05,-21.88 36.52,-22.74 36.98,-23.25 37.45,-23.74 37.91,-24.83 38.38,-26.21 38.84,-27.53 39.31,-28.73 39.77,-30.18 40.24,-31.45 40.7,-32.86 41.17,-34.19 41.64,-35.41 42.1,-36.55 42.57,-37.68 43.03,-38.72 43.5,-39.72 43.96,-40.64 44.43,-41.27 44.89,-42.16 45.36,-42.73 45.82,-43.04 46.29,-43.36 46.75,-43.87 47.22,-44.42 47.68,-44.84 48.15,-45.64 48.61,-46.31 49.08,-47.04 49.54,-47.65 50.01,-48.02 50.47,-48.28 50.94,-49.27 51.4,-50.37 51.87,-51.43 52.33,-52.46 52.8,-53.44 53.27,-54.22 53.73,-54.87 54.2,-55.69 54.66,-56.92 55.13,-57.53 55.59,-57.97 56.06,-59.13 56.52,-60.15 56.99,-60.94 57.45,-61.68 57.92,-62.34 58.38,-63 58.85,-63.29 59.31,-64.28 59.78,-65.32 60.24,-66.3 60.71,-67.22 61.17,-68.07 61.64,-68.83 62.1,-69.5 62.57,-70.14 63.03,-70.7 63.5,-71.05 63.96,-71.17 64.43,-71.36 64.9,-71.84 65.36,-72.31 65.83,-72.62 66.29,-73.1 66.76,-73.51 67.22,-73.94 67.69,-74.28 68.15,-74.59 " class="primitive"/>
            </g>
          </g>
        </g>
        <g stroke-width="0.3" fill="#000000" fill-opacity="0.000" class="geometry" id="img-5da66f8d-39">
          <g class="color_LCHab{Float32}(80.0f0,70.000015f0,100.43479f0)" stroke-dasharray="none" stroke-opacity="1" stroke="#D4CA3A" id="img-5da66f8d-40">
            <g transform="translate(90.99,90.89)" id="img-5da66f8d-41">
              <path fill="none" d="M-68.15,13.15 L-67.69,13.15 -67.22,13.15 -66.76,13.15 -66.29,13.15 -65.83,13.15 -65.36,13.15 -64.9,13.15 -64.43,13.15 -63.96,13.15 -63.5,13.15 -63.03,13.15 -62.57,13.15 -62.1,13.15 -61.64,13.15 -61.17,13.15 -60.71,13.15 -60.24,13.15 -59.78,13.15 -59.31,13.15 -58.85,13.15 -58.38,13.15 -57.92,13.15 -57.45,13.15 -56.99,13.15 -56.52,13.15 -56.06,13.15 -55.59,13.15 -55.13,13.15 -54.66,13.15 -54.2,13.15 -53.73,13.15 -53.27,13.15 -52.8,13.15 -52.33,13.15 -51.87,13.15 -51.4,13.15 -50.94,13.15 -50.47,13.15 -50.01,13.15 -49.54,13.15 -49.08,13.15 -48.61,13.15 -48.15,13.15 -47.68,13.15 -47.22,13.15 -46.75,13.15 -46.29,13.15 -45.82,13.15 -45.36,13.15 -44.89,13.15 -44.43,13.15 -43.96,13.15 -43.5,13.15 -43.03,13.15 -42.57,13.15 -42.1,13.15 -41.64,13.15 -41.17,13.15 -40.7,13.15 -40.24,13.15 -39.77,13.15 -39.31,13.15 -38.84,13.15 -38.38,13.15 -37.91,13.15 -37.45,13.15 -36.98,13.15 -36.52,13.15 -36.05,13.15 -35.59,13.15 -35.12,13.15 -34.66,13.15 -34.19,13.15 -33.73,13.15 -33.26,13.15 -32.8,13.15 -32.33,13.15 -31.87,13.15 -31.4,13.15 -30.94,13.15 -30.47,13.15 -30.01,13.15 -29.54,13.15 -29.07,13.15 -28.61,13.15 -28.14,13.15 -27.68,13.15 -27.21,13.15 -26.75,13.15 -26.28,13.15 -25.82,13.15 -25.35,13.15 -24.89,13.15 -24.42,13.15 -23.96,13.15 -23.49,13.15 -23.03,13.15 -22.56,13.15 -22.1,13.15 -21.63,13.15 -21.17,13.15 -20.7,13.15 -20.24,13.15 -19.77,13.15 -19.31,13.15 -18.84,13.15 -18.38,13.15 -17.91,13.15 -17.44,13.15 -16.98,13.15 -16.51,13.15 -16.05,13.15 -15.58,13.15 -15.12,13.15 -14.65,13.15 -14.19,13.15 -13.72,13.15 -13.26,13.15 -12.79,13.15 -12.33,13.15 -11.86,13.14 -11.4,13.12 -10.93,13.11 -10.47,13.09 -10,13.08 -9.54,13.06 -9.07,13.04 -8.61,13.02 -8.14,13 -7.68,12.98 -7.21,12.96 -6.75,12.94 -6.28,12.91 -5.81,12.88 -5.35,12.83 -4.88,12.79 -4.42,12.72 -3.95,12.65 -3.49,12.6 -3.02,12.47 -2.56,12.39 -2.09,12.25 -1.63,12.09 -1.16,11.89 -0.7,11.67 -0.23,11.43 0.23,11.24 0.7,11.02 1.16,10.75 1.63,10.47 2.09,10.23 2.56,9.92 3.02,9.66 3.49,9.38 3.95,9.24 4.42,9.05 4.88,8.8 5.35,8.48 5.81,8.18 6.28,7.86 6.75,7.59 7.21,7.35 7.68,7.13 8.14,6.95 8.61,6.81 9.07,6.52 9.54,6.25 10,6.01 10.47,5.83 10.93,5.59 11.4,5.41 11.86,5.26 12.33,5.11 12.79,4.91 13.26,4.59 13.72,4.32 14.19,4.1 14.65,3.87 15.12,3.47 15.58,3.16 16.05,2.65 16.51,2.12 16.98,1.69 17.44,1.18 17.91,0.67 18.38,0.29 18.84,-0.29 19.31,-0.81 19.77,-1.27 20.24,-1.65 20.7,-2.17 21.17,-2.84 21.63,-3.46 22.1,-4.13 22.56,-4.4 23.03,-4.67 23.49,-5.42 23.96,-6.2 24.42,-6.74 24.89,-7.33 25.35,-7.87 25.82,-8.39 26.28,-9.28 26.75,-10.06 27.21,-10.8 27.68,-11.42 28.14,-12.2 28.61,-12.9 29.07,-13.73 29.54,-14.51 30.01,-15.12 30.47,-15.51 30.94,-16.19 31.4,-16.76 31.87,-17.34 32.33,-18.21 32.8,-18.9 33.26,-19.84 33.73,-20.74 34.19,-21.52 34.66,-22.25 35.12,-22.85 35.59,-23.66 36.05,-24.47 36.52,-25.19 36.98,-25.19 37.45,-25.19 37.91,-25.19 38.38,-25.19 38.84,-25.19 39.31,-25.19 39.77,-25.19 40.24,-25.19 40.7,-25.19 41.17,-25.19 41.64,-25.19 42.1,-25.19 42.57,-25.19 43.03,-25.19 43.5,-25.19 43.96,-25.19 44.43,-25.19 44.89,-25.19 45.36,-25.19 45.82,-25.19 46.29,-25.19 46.75,-25.19 47.22,-25.19 47.68,-25.19 48.15,-25.19 48.61,-25.19 49.08,-25.19 49.54,-25.19 50.01,-25.19 50.47,-25.19 50.94,-25.19 51.4,-25.19 51.87,-25.19 52.33,-25.19 52.8,-25.19 53.27,-25.19 53.73,-25.19 54.2,-25.19 54.66,-25.19 55.13,-25.19 55.59,-25.19 56.06,-25.19 56.52,-25.19 56.99,-25.19 57.45,-25.19 57.92,-25.19 58.38,-25.19 58.85,-25.19 59.31,-25.19 59.78,-25.19 60.24,-25.19 60.71,-25.19 61.17,-25.19 61.64,-25.19 62.1,-25.19 62.57,-25.19 63.03,-25.19 63.5,-25.19 63.96,-25.19 64.43,-25.19 64.9,-25.19 65.36,-25.19 65.83,-25.19 66.29,-25.19 66.76,-25.19 67.22,-25.19 67.69,-25.19 68.15,-25.19 " class="primitive"/>
            </g>
          </g>
        </g>
        <g stroke-width="0.3" fill="#000000" fill-opacity="0.000" class="geometry" id="img-5da66f8d-42">
          <g class="color_LCHab{Float32}(65.89944f0,62.21457f0,353.99814f0)" stroke-dasharray="none" stroke-opacity="1" stroke="#FF6DAE" id="img-5da66f8d-43">
            <g transform="translate(90.99,101.7)" id="img-5da66f8d-44">
              <path fill="none" d="M-68.15,2.32 L-67.69,2.32 -67.22,2.32 -66.76,2.32 -66.29,2.32 -65.83,2.32 -65.36,2.32 -64.9,2.32 -64.43,2.32 -63.96,2.32 -63.5,2.32 -63.03,2.32 -62.57,2.32 -62.1,2.32 -61.64,2.32 -61.17,2.32 -60.71,2.32 -60.24,2.32 -59.78,2.32 -59.31,2.32 -58.85,2.32 -58.38,2.32 -57.92,2.32 -57.45,2.32 -56.99,2.32 -56.52,2.32 -56.06,2.32 -55.59,2.32 -55.13,2.32 -54.66,2.32 -54.2,2.32 -53.73,2.32 -53.27,2.32 -52.8,2.32 -52.33,2.32 -51.87,2.32 -51.4,2.32 -50.94,2.32 -50.47,2.32 -50.01,2.32 -49.54,2.32 -49.08,2.32 -48.61,2.32 -48.15,2.32 -47.68,2.32 -47.22,2.32 -46.75,2.32 -46.29,2.32 -45.82,2.32 -45.36,2.32 -44.89,2.32 -44.43,2.32 -43.96,2.32 -43.5,2.32 -43.03,2.32 -42.57,2.32 -42.1,2.32 -41.64,2.32 -41.17,2.32 -40.7,2.32 -40.24,2.32 -39.77,2.32 -39.31,2.32 -38.84,2.32 -38.38,2.32 -37.91,2.32 -37.45,2.32 -36.98,2.32 -36.52,2.32 -36.05,2.32 -35.59,2.32 -35.12,2.32 -34.66,2.32 -34.19,2.32 -33.73,2.32 -33.26,2.32 -32.8,2.32 -32.33,2.32 -31.87,2.32 -31.4,2.32 -30.94,2.32 -30.47,2.32 -30.01,2.32 -29.54,2.32 -29.07,2.32 -28.61,2.32 -28.14,2.32 -27.68,2.32 -27.21,2.32 -26.75,2.32 -26.28,2.32 -25.82,2.32 -25.35,2.32 -24.89,2.32 -24.42,2.32 -23.96,2.32 -23.49,2.32 -23.03,2.32 -22.56,2.32 -22.1,2.32 -21.63,2.32 -21.17,2.32 -20.7,2.32 -20.24,2.32 -19.77,2.32 -19.31,2.32 -18.84,2.32 -18.38,2.32 -17.91,2.32 -17.44,2.32 -16.98,2.32 -16.51,2.32 -16.05,2.32 -15.58,2.32 -15.12,2.32 -14.65,2.32 -14.19,2.32 -13.72,2.32 -13.26,2.32 -12.79,2.32 -12.33,2.32 -11.86,2.32 -11.4,2.32 -10.93,2.31 -10.47,2.31 -10,2.31 -9.54,2.3 -9.07,2.3 -8.61,2.3 -8.14,2.29 -7.68,2.29 -7.21,2.29 -6.75,2.28 -6.28,2.28 -5.81,2.27 -5.35,2.26 -4.88,2.26 -4.42,2.24 -3.95,2.23 -3.49,2.22 -3.02,2.2 -2.56,2.19 -2.09,2.16 -1.63,2.13 -1.16,2.1 -0.7,2.06 -0.23,2.02 0.23,1.98 0.7,1.94 1.16,1.9 1.63,1.85 2.09,1.8 2.56,1.75 3.02,1.7 3.49,1.66 3.95,1.63 4.42,1.6 4.88,1.55 5.35,1.5 5.81,1.44 6.28,1.39 6.75,1.34 7.21,1.3 7.68,1.26 8.14,1.23 8.61,1.2 9.07,1.15 9.54,1.1 10,1.06 10.47,1.03 10.93,0.99 11.4,0.96 11.86,0.93 12.33,0.9 12.79,0.87 13.26,0.81 13.72,0.76 14.19,0.72 14.65,0.68 15.12,0.61 15.58,0.56 16.05,0.47 16.51,0.37 16.98,0.3 17.44,0.21 17.91,0.12 18.38,0.05 18.84,-0.05 19.31,-0.14 19.77,-0.22 20.24,-0.29 20.7,-0.38 21.17,-0.5 21.63,-0.61 22.1,-0.73 22.56,-0.78 23.03,-0.82 23.49,-0.96 23.96,-1.09 24.42,-1.19 24.89,-1.29 25.35,-1.39 25.82,-1.48 26.28,-1.64 26.75,-1.78 27.21,-1.91 27.68,-2.02 28.14,-2.15 28.61,-2.28 29.07,-2.42 29.54,-2.56 30.01,-2.67 30.47,-2.74 30.94,-2.86 31.4,-2.96 31.87,-3.06 32.33,-3.21 32.8,-3.34 33.26,-3.5 33.73,-3.66 34.19,-3.8 34.66,-3.93 35.12,-4.03 35.59,-4.17 36.05,-4.32 36.52,-4.45 36.98,-4.45 37.45,-4.45 37.91,-4.45 38.38,-4.45 38.84,-4.45 39.31,-4.45 39.77,-4.45 40.24,-4.45 40.7,-4.45 41.17,-4.45 41.64,-4.45 42.1,-4.45 42.57,-4.45 43.03,-4.45 43.5,-4.45 43.96,-4.45 44.43,-4.45 44.89,-4.45 45.36,-4.45 45.82,-4.45 46.29,-4.45 46.75,-4.45 47.22,-4.45 47.68,-4.45 48.15,-4.45 48.61,-4.45 49.08,-4.45 49.54,-4.45 50.01,-4.45 50.47,-4.45 50.94,-4.45 51.4,-4.45 51.87,-4.45 52.33,-4.45 52.8,-4.45 53.27,-4.45 53.73,-4.45 54.2,-4.45 54.66,-4.45 55.13,-4.45 55.59,-4.45 56.06,-4.45 56.52,-4.45 56.99,-4.45 57.45,-4.45 57.92,-4.45 58.38,-4.45 58.85,-4.45 59.31,-4.45 59.78,-4.45 60.24,-4.45 60.71,-4.45 61.17,-4.45 61.64,-4.45 62.1,-4.45 62.57,-4.45 63.03,-4.45 63.5,-4.45 63.96,-4.45 64.43,-4.45 64.9,-4.45 65.36,-4.45 65.83,-4.45 66.29,-4.45 66.76,-4.45 67.22,-4.45 67.69,-4.45 68.15,-4.45 " class="primitive"/>
            </g>
          </g>
        </g>
        <g stroke-width="0.3" fill="#000000" fill-opacity="0.000" class="geometry" id="img-5da66f8d-45">
          <g class="color_LCHab{Float32}(66.303474f0,50.090958f0,168.24765f0)" stroke-dasharray="none" stroke-opacity="1" stroke="#00B78D" id="img-5da66f8d-46">
            <g transform="translate(90.99,97.14)" id="img-5da66f8d-47">
              <path fill="none" d="M-68.15,6.9 L-67.69,6.9 -67.22,6.9 -66.76,6.9 -66.29,6.9 -65.83,6.9 -65.36,6.9 -64.9,6.9 -64.43,6.9 -63.96,6.9 -63.5,6.9 -63.03,6.9 -62.57,6.9 -62.1,6.9 -61.64,6.9 -61.17,6.9 -60.71,6.9 -60.24,6.9 -59.78,6.9 -59.31,6.9 -58.85,6.9 -58.38,6.9 -57.92,6.9 -57.45,6.9 -56.99,6.9 -56.52,6.9 -56.06,6.9 -55.59,6.9 -55.13,6.9 -54.66,6.9 -54.2,6.9 -53.73,6.9 -53.27,6.9 -52.8,6.9 -52.33,6.9 -51.87,6.9 -51.4,6.9 -50.94,6.9 -50.47,6.9 -50.01,6.9 -49.54,6.9 -49.08,6.9 -48.61,6.9 -48.15,6.9 -47.68,6.9 -47.22,6.9 -46.75,6.9 -46.29,6.9 -45.82,6.9 -45.36,6.9 -44.89,6.9 -44.43,6.9 -43.96,6.9 -43.5,6.9 -43.03,6.9 -42.57,6.9 -42.1,6.9 -41.64,6.9 -41.17,6.9 -40.7,6.9 -40.24,6.9 -39.77,6.9 -39.31,6.9 -38.84,6.9 -38.38,6.9 -37.91,6.9 -37.45,6.9 -36.98,6.9 -36.52,6.9 -36.05,6.9 -35.59,6.9 -35.12,6.9 -34.66,6.9 -34.19,6.9 -33.73,6.9 -33.26,6.9 -32.8,6.9 -32.33,6.9 -31.87,6.9 -31.4,6.9 -30.94,6.9 -30.47,6.9 -30.01,6.9 -29.54,6.9 -29.07,6.9 -28.61,6.9 -28.14,6.9 -27.68,6.9 -27.21,6.9 -26.75,6.9 -26.28,6.9 -25.82,6.9 -25.35,6.9 -24.89,6.9 -24.42,6.9 -23.96,6.9 -23.49,6.9 -23.03,6.9 -22.56,6.9 -22.1,6.9 -21.63,6.9 -21.17,6.9 -20.7,6.9 -20.24,6.9 -19.77,6.9 -19.31,6.9 -18.84,6.9 -18.38,6.9 -17.91,6.9 -17.44,6.9 -16.98,6.9 -16.51,6.9 -16.05,6.9 -15.58,6.9 -15.12,6.9 -14.65,6.9 -14.19,6.9 -13.72,6.9 -13.26,6.9 -12.79,6.9 -12.33,6.9 -11.86,6.9 -11.4,6.9 -10.93,6.9 -10.47,6.9 -10,6.9 -9.54,6.9 -9.07,6.9 -8.61,6.9 -8.14,6.9 -7.68,6.9 -7.21,6.9 -6.75,6.9 -6.28,6.9 -5.81,6.9 -5.35,6.9 -4.88,6.9 -4.42,6.9 -3.95,6.9 -3.49,6.9 -3.02,6.9 -2.56,6.9 -2.09,6.9 -1.63,6.9 -1.16,6.9 -0.7,6.9 -0.23,6.9 0.23,6.9 0.7,6.9 1.16,6.9 1.63,6.9 2.09,6.9 2.56,6.9 3.02,6.9 3.49,6.9 3.95,6.9 4.42,6.9 4.88,6.9 5.35,6.9 5.81,6.9 6.28,6.9 6.75,6.9 7.21,6.9 7.68,6.9 8.14,6.9 8.61,6.9 9.07,6.9 9.54,6.9 10,6.9 10.47,6.9 10.93,6.9 11.4,6.9 11.86,6.9 12.33,6.9 12.79,6.9 13.26,6.9 13.72,6.9 14.19,6.9 14.65,6.9 15.12,6.9 15.58,6.9 16.05,6.9 16.51,6.9 16.98,6.9 17.44,6.9 17.91,6.9 18.38,6.9 18.84,6.9 19.31,6.9 19.77,6.9 20.24,6.9 20.7,6.9 21.17,6.9 21.63,6.9 22.1,6.9 22.56,6.9 23.03,6.9 23.49,6.9 23.96,6.9 24.42,6.9 24.89,6.9 25.35,6.9 25.82,6.9 26.28,6.9 26.75,6.9 27.21,6.9 27.68,6.9 28.14,6.9 28.61,6.9 29.07,6.9 29.54,6.9 30.01,6.9 30.47,6.9 30.94,6.9 31.4,6.9 31.87,6.9 32.33,6.9 32.8,6.9 33.26,6.9 33.73,6.9 34.19,6.9 34.66,6.9 35.12,6.9 35.59,6.9 36.05,6.9 36.52,6.9 36.98,6.39 37.45,5.9 37.91,4.8 38.38,3.43 38.84,2.11 39.31,0.91 39.77,-0.54 40.24,-1.81 40.7,-3.22 41.17,-4.55 41.64,-5.78 42.1,-6.92 42.57,-8.04 43.03,-9.08 43.5,-10.08 43.96,-11 44.43,-11.63 44.89,-12.52 45.36,-13.09 45.82,-13.41 46.29,-13.72 46.75,-14.23 47.22,-14.78 47.68,-15.21 48.15,-16.01 48.61,-16.67 49.08,-17.4 49.54,-18.01 50.01,-18.39 50.47,-18.64 50.94,-19.63 51.4,-20.73 51.87,-21.79 52.33,-22.82 52.8,-23.8 53.27,-24.58 53.73,-25.23 54.2,-26.05 54.66,-27.28 55.13,-27.89 55.59,-28.33 56.06,-29.49 56.52,-30.51 56.99,-31.3 57.45,-32.04 57.92,-32.7 58.38,-33.36 58.85,-33.65 59.31,-34.64 59.78,-35.68 60.24,-36.66 60.71,-37.58 61.17,-38.43 61.64,-39.19 62.1,-39.86 62.57,-40.5 63.03,-41.06 63.5,-41.41 63.96,-41.53 64.43,-41.73 64.9,-42.2 65.36,-42.67 65.83,-42.98 66.29,-43.47 66.76,-43.87 67.22,-44.3 67.69,-44.64 68.15,-44.95 " class="primitive"/>
            </g>
          </g>
        </g>
      </g>
    </g>
  </g>
  <g class="guide ylabels" font-size="2.82" font-family="'PT Sans Caption','Helvetica Neue','Helvetica',sans-serif" fill="#6C606B" id="img-5da66f8d-48">
    <g transform="translate(19.98,104.04)" id="img-5da66f8d-49">
      <g class="primitive">
        <text text-anchor="end" dy="0.35em">0</text>
      </g>
    </g>
    <g transform="translate(19.98,63.17)" id="img-5da66f8d-50">
      <g class="primitive">
        <text text-anchor="end" dy="0.35em">500</text>
      </g>
    </g>
    <g transform="translate(19.98,22.29)" id="img-5da66f8d-51">
      <g class="primitive">
        <text text-anchor="end" dy="0.35em">1000</text>
      </g>
    </g>
  </g>
  <g font-size="3.53" font-family="'PT Sans','Helvetica Neue','Helvetica',sans-serif" fill="#564A55" stroke="#000000" stroke-opacity="0.000" id="img-5da66f8d-52">
    <g transform="translate(8.64,53.52)" id="img-5da66f8d-53">
      <g class="primitive">
        <text text-anchor="middle" dy="0.35em" transform="rotate(-90,0, 2)"> (g m⁻²)</text>
      </g>
    </g>
  </g>
</g>
<defs>
  <clipPath id="img-5da66f8d-22">
    <path d="M20.98,5 L161.47,5 161.47,106.04 20.98,106.04 " />
  </clipPath>
</defs>
</svg>
