<?xml version="1.0" encoding="UTF-8"?>
<svg xmlns="http://www.w3.org/2000/svg"
     xmlns:xlink="http://www.w3.org/1999/xlink"
     xmlns:gadfly="http://www.gadflyjl.org/ns"
     version="1.2"
     width="180mm" height="120mm" viewBox="0 0 180 120"
     stroke="none"
     fill="#000000"
     stroke-width="0.3"
     font-size="3.88"
>
<defs>
  <marker id="arrow" markerWidth="15" markerHeight="7" refX="5" refY="3.5" orient="auto" markerUnits="strokeWidth">
    <path d="M0,0 L15,3.5 L0,7 z" stroke="context-stroke" fill="context-stroke"/>
  </marker>
</defs>
<g stroke="#000000" stroke-opacity="0.000" fill="#FFFFFF" id="img-d8f84a4a-1">
  <g transform="translate(90,60)">
    <path d="M-90,-60 L90,-60 90,60 -90,60  z" class="primitive"/>
  </g>
</g>
<g class="plotroot xscalable yscalable" id="img-d8f84a4a-2">
  <g font-size="3.53" font-family="'PT Sans','Helvetica Neue','Helvetica',sans-serif" fill="#564A55" stroke="#000000" stroke-opacity="0.000" id="img-d8f84a4a-3">
    <g transform="translate(87.54,113.72)">
      <g class="primitive">
        <text text-anchor="middle" dy="0.6em">DATE</text>
      </g>
    </g>
  </g>
  <g class="guide xlabels" font-size="2.82" font-family="'PT Sans Caption','Helvetica Neue','Helvetica',sans-serif" fill="#6C606B" id="img-d8f84a4a-4">
    <g transform="translate(19.48,107.04)">
      <g class="primitive">
        <text text-anchor="middle" dy="0.6em">Jan 1, 1987</text>
      </g>
    </g>
    <g transform="translate(61.15,107.04)">
      <g class="primitive">
        <text text-anchor="middle" dy="0.6em">Apr</text>
      </g>
    </g>
    <g transform="translate(103.28,107.04)">
      <g class="primitive">
        <text text-anchor="middle" dy="0.6em">Jul</text>
      </g>
    </g>
    <g transform="translate(145.87,107.04)">
      <g class="primitive">
        <text text-anchor="middle" dy="0.6em">Oct</text>
      </g>
    </g>
  </g>
  <g class="guide colorkey" id="img-d8f84a4a-5">
    <g fill="#4C404B" font-size="2.82" font-family="'PT Sans','Helvetica Neue','Helvetica',sans-serif" id="img-d8f84a4a-6">
      <g transform="translate(162.07,54.12)" id="img-d8f84a4a-7">
        <g class="primitive">
          <text dy="0.35em">Runoff</text>
        </g>
      </g>
      <g transform="translate(162.07,57.75)" id="img-d8f84a4a-8">
        <g class="primitive">
          <text dy="0.35em">Infiltration</text>
        </g>
      </g>
      <g transform="translate(162.07,61.38)" id="img-d8f84a4a-9">
        <g class="primitive">
          <text dy="0.35em">Drainage</text>
        </g>
      </g>
    </g>
    <g stroke-width="0.3" id="img-d8f84a4a-10">
      <g stroke="#FFFFFF" stroke-opacity="0.000" fill-opacity="1" fill="#FF6DAE" id="img-d8f84a4a-11">
        <g transform="translate(159.26,61.38)" id="img-d8f84a4a-12">
          <circle cx="0" cy="0" r="0.7" class="primitive"/>
        </g>
      </g>
      <g stroke="#FFFFFF" stroke-opacity="0.000" fill-opacity="1" fill="#D4CA3A" id="img-d8f84a4a-13">
        <g transform="translate(159.26,57.75)" id="img-d8f84a4a-14">
          <circle cx="0" cy="0" r="0.7" class="primitive"/>
        </g>
      </g>
      <g stroke="#FFFFFF" stroke-opacity="0.000" fill-opacity="1" fill="#00BFFF" id="img-d8f84a4a-15">
        <g transform="translate(159.26,54.12)" id="img-d8f84a4a-16">
          <circle cx="0" cy="0" r="0.7" class="primitive"/>
        </g>
      </g>
    </g>
    <g fill="#362A35" font-size="3.18" font-family="'PT Sans','Helvetica Neue','Helvetica',sans-serif" stroke="#000000" stroke-opacity="0.000" id="img-d8f84a4a-17">
      <g transform="translate(158.45,50.81)" id="img-d8f84a4a-18">
        <g class="primitive">
          <text dy="-0em"></text>
        </g>
      </g>
    </g>
  </g>
  <g clip-path="url(#img-d8f84a4a-19)">
    <g id="img-d8f84a4a-20">
      <g pointer-events="visible" stroke-width="0.3" fill="#000000" fill-opacity="0.000" stroke="#000000" stroke-opacity="0.000" class="guide background" id="img-d8f84a4a-21">
        <g transform="translate(87.54,55.52)" id="img-d8f84a4a-22">
          <path d="M-69.91,-50.52 L69.91,-50.52 69.91,50.52 -69.91,50.52  z" class="primitive"/>
        </g>
      </g>
      <g class="guide ygridlines xfixed" stroke-dasharray="0.5,0.5" stroke-width="0.2" stroke="#D0D0E0" id="img-d8f84a4a-23">
        <g transform="translate(87.54,104.04)" id="img-d8f84a4a-24">
          <path fill="none" d="M-69.91,0 L69.91,0 " class="primitive"/>
        </g>
        <g transform="translate(87.54,44.14)" id="img-d8f84a4a-25">
          <path fill="none" d="M-69.91,0 L69.91,0 " class="primitive"/>
        </g>
      </g>
      <g class="guide xgridlines yfixed" stroke-dasharray="0.5,0.5" stroke-width="0.2" stroke="#D0D0E0" id="img-d8f84a4a-26">
        <g transform="translate(19.48,55.52)" id="img-d8f84a4a-27">
          <path fill="none" d="M0,-50.52 L0,50.52 " class="primitive"/>
        </g>
        <g transform="translate(61.15,55.52)" id="img-d8f84a4a-28">
          <path fill="none" d="M0,-50.52 L0,50.52 " class="primitive"/>
        </g>
        <g transform="translate(103.28,55.52)" id="img-d8f84a4a-29">
          <path fill="none" d="M0,-50.52 L0,50.52 " class="primitive"/>
        </g>
        <g transform="translate(145.87,55.52)" id="img-d8f84a4a-30">
          <path fill="none" d="M0,-50.52 L0,50.52 " class="primitive"/>
        </g>
      </g>
      <g class="plotpanel" id="img-d8f84a4a-31">
        <metadata>
          <boundingbox value="17.629999999999995mm 5.0mm 139.81666666666666mm 101.04333333333334mm"/>
          <unitbox value="1986-12-28 82.66935733177618 302 days -84.33871466355237"/>
        </metadata>
        <g stroke-width="0.3" fill="#000000" fill-opacity="0.000" class="geometry" id="img-d8f84a4a-32">
          <g class="color_LCHab{Float32}(70.0f0,60.0f0,240.0f0)" stroke-dasharray="none" stroke-opacity="1" stroke="#00BFFF" id="img-d8f84a4a-33">
            <g transform="translate(87.31,103.98)" id="img-d8f84a4a-34">
              <path fill="none" d="M-67.82,0.07 L-67.36,0.07 -66.9,0.07 -66.44,0.07 -65.97,0.07 -65.51,0.07 -65.05,0.07 -64.58,0.07 -64.12,0.07 -63.66,0.07 -63.2,0.07 -62.73,0.07 -62.27,0.07 -61.81,0.07 -61.34,0.07 -60.88,0.07 -60.42,0.07 -59.95,0.07 -59.49,0.07 -59.03,0.07 -58.57,0.07 -58.1,0.07 -57.64,0.07 -57.18,0.07 -56.71,0.07 -56.25,0.07 -55.79,0.07 -55.32,0.07 -54.86,0.07 -54.4,0.07 -53.94,0.07 -53.47,0.07 -53.01,0.07 -52.55,0.07 -52.08,0.07 -51.62,0.04 -51.16,0.07 -50.7,0.07 -50.23,0.07 -49.77,0.07 -49.31,0.07 -48.84,0.07 -48.38,0.07 -47.92,0.07 -47.45,0.07 -46.99,0.07 -46.53,0.07 -46.07,0.07 -45.6,0.07 -45.14,0.07 -44.68,0.07 -44.21,0.07 -43.75,0.07 -43.29,0.07 -42.82,0.07 -42.36,0.07 -41.9,0.07 -41.44,0.07 -40.97,0.07 -40.51,0.01 -40.05,0.07 -39.58,0.07 -39.12,0.07 -38.66,0.07 -38.19,0.07 -37.73,0.07 -37.27,0.07 -36.81,0.07 -36.34,0.07 -35.88,0.07 -35.42,0.07 -34.95,0.07 -34.49,0.07 -34.03,0.07 -33.57,0.07 -33.1,0.07 -32.64,0.07 -32.18,0.07 -31.71,0.07 -31.25,0.07 -30.79,0.07 -30.32,0.07 -29.86,0.07 -29.4,0.07 -28.94,0.07 -28.47,0.07 -28.01,-8.3 -27.55,0.07 -27.08,0.06 -26.62,0.07 -26.16,0.07 -25.69,0.07 -25.23,0.07 -24.77,0.07 -24.31,0.07 -23.84,0.07 -23.38,0.07 -22.92,0.07 -22.45,0.07 -21.99,0.07 -21.53,0.07 -21.07,0.07 -20.6,0.07 -20.14,0.07 -19.68,0.07 -19.21,0.07 -18.75,0.07 -18.29,0.07 -17.82,0.07 -17.36,0.07 -16.9,0.07 -16.44,0.07 -15.97,0.07 -15.51,0.07 -15.05,0.07 -14.58,0.07 -14.12,0.07 -13.66,0.07 -13.19,0.07 -12.73,0.07 -12.27,0.07 -11.81,0.07 -11.34,0.07 -10.88,0.07 -10.42,0.07 -9.95,0.07 -9.49,0.07 -9.03,0.07 -8.56,0.07 -8.1,0.07 -7.64,0.07 -7.18,0.07 -6.71,0.07 -6.25,0.07 -5.79,0.07 -5.32,0.07 -4.86,0.07 -4.4,0.07 -3.94,0.07 -3.47,0.07 -3.01,0.07 -2.55,0.07 -2.08,0.07 -1.62,0.07 -1.16,0.07 -0.69,0.07 -0.23,0.07 0.23,0.07 0.69,0.07 1.16,0.07 1.62,0.07 2.08,0.07 2.55,0.07 3.01,0.07 3.47,0.07 3.94,0.07 4.4,0.07 4.86,0.07 5.32,0.07 5.79,0.07 6.25,0.07 6.71,0.07 7.18,0.07 7.64,0.07 8.1,0.07 8.56,0.07 9.03,0.07 9.49,0.07 9.95,0.07 10.42,0.07 10.88,0.07 11.34,0.07 11.81,0.07 12.27,0.07 12.73,0.07 13.19,0.07 13.66,0.07 14.12,0.07 14.58,0.07 15.05,0.07 15.51,0.07 15.97,0.07 16.44,0.07 16.9,0.07 17.36,0.07 17.82,0.07 18.29,0.07 18.75,0.07 19.21,0.07 19.68,0.07 20.14,0.07 20.6,0.07 21.07,0.07 21.53,0.07 21.99,0.07 22.45,0.07 22.92,0.07 23.38,0.07 23.84,0.07 24.31,0.07 24.77,0.07 25.23,0.07 25.69,0.07 26.16,0.07 26.62,0.07 27.08,0.07 27.55,0.07 28.01,0.07 28.47,0.07 28.94,0.07 29.4,0.07 29.86,0.07 30.32,0.07 30.79,0.07 31.25,0.07 31.71,0.07 32.18,0.07 32.64,0.07 33.1,0.07 33.57,0.07 34.03,0.07 34.49,-10.46 34.95,0.07 35.42,0.07 35.88,0.07 36.34,0.07 36.81,0.07 37.27,0.07 37.73,0.07 38.19,0.07 38.66,0.07 39.12,0.07 39.58,0.07 40.05,0.07 40.51,0.07 40.97,0.07 41.44,0.07 41.9,0.07 42.36,0.07 42.82,0.07 43.29,0.07 43.75,0.07 44.21,0.07 44.68,0.07 45.14,0.07 45.6,0.07 46.07,0.07 46.53,0.07 46.99,0.07 47.45,0.07 47.92,0.07 48.38,0.07 48.84,0.07 49.31,0.07 49.77,-0.08 50.23,0.07 50.7,0.07 51.16,0.07 51.62,0.07 52.08,0.07 52.55,0.07 53.01,0.07 53.47,0.07 53.94,0.07 54.4,0.07 54.86,0.07 55.32,0.07 55.79,0.07 56.25,0.07 56.71,0.07 57.18,0.07 57.64,0.07 58.1,0.07 58.57,0.07 59.03,0.07 59.49,0.07 59.95,0.07 60.42,0.07 60.88,0.07 61.34,0.07 61.81,0.07 62.27,0.07 62.73,0.07 63.2,0.07 63.66,0.07 64.12,0.07 64.58,0.07 65.05,0.07 65.51,0.07 65.97,0.07 66.44,0.07 66.9,0.07 67.36,0.07 67.82,0.07 " class="primitive"/>
            </g>
          </g>
        </g>
        <g stroke-width="0.3" fill="#000000" fill-opacity="0.000" class="geometry" id="img-d8f84a4a-35">
          <g class="color_LCHab{Float32}(80.0f0,70.000015f0,100.43479f0)" stroke-dasharray="none" stroke-opacity="1" stroke="#D4CA3A" id="img-d8f84a4a-36">
            <g transform="translate(87.31,99.89)" id="img-d8f84a4a-37">
              <path fill="none" d="M-67.82,-24.48 L-67.36,4.16 -66.9,4.16 -66.44,-13.46 -65.97,3.2 -65.51,4.16 -65.05,4.16 -64.58,4.16 -64.12,4.16 -63.66,-0.4 -63.2,4.16 -62.73,4.16 -62.27,4.16 -61.81,4.16 -61.34,4.16 -60.88,-3.39 -60.42,0.8 -59.95,4.16 -59.49,-1.95 -59.03,4.16 -58.57,-14.41 -58.1,-35.38 -57.64,4.16 -57.18,4.16 -56.71,4.16 -56.25,4.16 -55.79,4.16 -55.32,4.16 -54.86,4.16 -54.4,4.16 -53.94,4.16 -53.47,4.16 -53.01,-0.16 -52.55,4.16 -52.08,4.16 -51.62,-48.17 -51.16,2 -50.7,2.6 -50.23,4.16 -49.77,4.16 -49.31,4.16 -48.84,4.16 -48.38,4.16 -47.92,4.16 -47.45,4.16 -46.99,4.16 -46.53,-32.03 -46.07,4.16 -45.6,4.16 -45.14,4.16 -44.68,4.16 -44.21,-34.78 -43.75,-23.88 -43.29,4.16 -42.82,3.8 -42.36,2.96 -41.9,4.16 -41.44,4.16 -40.97,4.16 -40.51,-49.34 -40.05,4.16 -39.58,4.16 -39.12,4.16 -38.66,4.16 -38.19,4.16 -37.73,-32.03 -37.27,-0.76 -36.81,3.2 -36.34,4.16 -35.88,4.16 -35.42,4.16 -34.95,4.16 -34.49,4.16 -34.03,4.16 -33.57,4.16 -33.1,4.16 -32.64,4.16 -32.18,0.56 -31.71,4.16 -31.25,4.16 -30.79,4.16 -30.32,4.16 -29.86,4.16 -29.4,4.16 -28.94,-0.4 -28.47,-20.52 -28.01,-87.28 -27.55,-12.26 -27.08,-46.99 -26.62,-12.86 -26.16,4.16 -25.69,4.16 -25.23,-1.35 -24.77,2.96 -24.31,4.16 -23.84,4.16 -23.38,4.16 -22.92,4.16 -22.45,4.16 -21.99,4.16 -21.53,4.16 -21.07,4.16 -20.6,4.16 -20.14,4.16 -19.68,-2.79 -19.21,4.16 -18.75,4.16 -18.29,4.16 -17.82,4.16 -17.36,4.16 -16.9,4.16 -16.44,4.16 -15.97,4.16 -15.51,4.16 -15.05,4.16 -14.58,4.16 -14.12,4.16 -13.66,4.16 -13.19,4.16 -12.73,4.16 -12.27,4.16 -11.81,4.16 -11.34,4.16 -10.88,4.16 -10.42,4.16 -9.95,4.16 -9.49,4.16 -9.03,4.16 -8.56,2.96 -8.1,4.16 -7.64,4.16 -7.18,-0.76 -6.71,-3.39 -6.25,-4.35 -5.79,4.16 -5.32,-5.55 -4.86,4.16 -4.4,4.16 -3.94,-42.45 -3.47,-8.9 -3.01,-26.27 -2.55,1.76 -2.08,4.16 -1.62,4.16 -1.16,4.16 -0.69,4.16 -0.23,-1.35 0.23,4.16 0.69,4.16 1.16,4.16 1.62,4.16 2.08,4.16 2.55,4.16 3.01,4.16 3.47,4.16 3.94,4.16 4.4,1.4 4.86,4.16 5.32,4.16 5.79,4.16 6.25,4.16 6.71,4.16 7.18,4.16 7.64,4.16 8.1,-1.59 8.56,4.16 9.03,4.16 9.49,4.16 9.95,4.16 10.42,4.16 10.88,4.16 11.34,4.16 11.81,-12.26 12.27,-3.75 12.73,3.56 13.19,4.16 13.66,-3.39 14.12,-37.9 14.58,2.96 15.05,-1.35 15.51,4.16 15.97,4.16 16.44,-1.95 16.9,2.6 17.36,4.16 17.82,4.16 18.29,4.16 18.75,3.2 19.21,3.56 19.68,-26.87 20.14,-10.1 20.6,4.16 21.07,4.16 21.53,4.16 21.99,-0.4 22.45,-0.4 22.92,4.16 23.38,4.16 23.84,3.2 24.31,2 24.77,3.56 25.23,-19.92 25.69,4.16 26.16,4.16 26.62,-13.22 27.08,2.96 27.55,2.96 28.01,4.16 28.47,-1.95 28.94,4.16 29.4,4.16 29.86,2.6 30.32,1.16 30.79,-17.41 31.25,2 31.71,-8.3 32.18,2.6 32.64,4.16 33.1,4.16 33.57,4.16 34.03,4.16 34.49,-91.83 34.95,-2.55 35.42,0.2 35.88,4.16 36.34,1.16 36.81,1.76 37.27,4.16 37.73,4.16 38.19,4.16 38.66,4.16 39.12,4.16 39.58,4.16 40.05,4.16 40.51,4.16 40.97,4.16 41.44,4.16 41.9,4.16 42.36,4.16 42.82,4.16 43.29,4.16 43.75,3.2 44.21,4.16 44.68,3.8 45.14,1.76 45.6,2.6 46.07,4.16 46.53,4.16 46.99,1.76 47.45,4.16 47.92,2.96 48.38,4.16 48.84,4.16 49.31,3.56 49.77,-51.64 50.23,0.2 50.7,4.16 51.16,4.16 51.62,4.16 52.08,4.16 52.55,3.56 53.01,-33.58 53.47,4.16 53.94,4.16 54.4,4.16 54.86,4.16 55.32,4.16 55.79,4.16 56.25,4.16 56.71,4.16 57.18,4.16 57.64,3.2 58.1,0.2 58.57,-4.11 59.03,4.16 59.49,4.16 59.95,4.16 60.42,4.16 60.88,4.16 61.34,4.16 61.81,4.16 62.27,4.16 62.73,4.16 63.2,4.16 63.66,4.16 64.12,4.16 64.58,4.16 65.05,4.16 65.51,4.16 65.97,4.16 66.44,4.16 66.9,4.16 67.36,4.16 67.82,4.16 " class="primitive"/>
            </g>
          </g>
        </g>
        <g stroke-width="0.3" fill="#000000" fill-opacity="0.000" class="geometry" id="img-d8f84a4a-38">
          <g class="color_LCHab{Float32}(65.89944f0,62.21457f0,353.99814f0)" stroke-dasharray="none" stroke-opacity="1" stroke="#FF6DAE" id="img-d8f84a4a-39">
            <g transform="translate(87.31,103.12)" id="img-d8f84a4a-40">
              <path fill="none" d="M-67.82,0.92 L-67.36,-1.82 -66.9,-1.31 -66.44,-0.81 -65.97,-2.31 -65.51,-1.77 -65.05,-1.19 -64.58,-0.69 -64.12,-0.21 -63.66,0.06 -63.2,-0.21 -62.73,0.23 -62.27,0.61 -61.81,0.92 -61.34,0.92 -60.88,0.92 -60.42,0.91 -59.95,0.7 -59.49,0.92 -59.03,0.5 -58.57,0.75 -58.1,-1.05 -57.64,-4.67 -57.18,-3.79 -56.71,-3.02 -56.25,-2.55 -55.79,-2.07 -55.32,-1.45 -54.86,-1.04 -54.4,-0.48 -53.94,-0.04 -53.47,0.48 -53.01,0.92 -52.55,0.68 -52.08,0.92 -51.62,0.92 -51.16,-3.91 -50.7,-3.54 -50.23,-3.17 -49.77,-2.33 -49.31,-1.58 -48.84,-0.94 -48.38,-0.39 -47.92,0.16 -47.45,0.71 -46.99,0.92 -46.53,0.92 -46.07,-1.8 -45.6,-1.31 -45.14,-0.85 -44.68,-0.23 -44.21,0.04 -43.75,-3.72 -43.29,-5.93 -42.82,-4.84 -42.36,-4.16 -41.9,-3.41 -41.44,-2.76 -40.97,-1.94 -40.51,-1.25 -40.05,-5.89 -39.58,-4.97 -39.12,-3.95 -38.66,-2.92 -38.19,-2.05 -37.73,-1.54 -37.27,-4.86 -36.81,-4.3 -36.34,-3.62 -35.88,-2.63 -35.42,-1.96 -34.95,-1.41 -34.49,-0.68 -34.03,0.03 -33.57,0.62 -33.1,0.92 -32.64,0.92 -32.18,0.92 -31.71,0.92 -31.25,0.92 -30.79,0.92 -30.32,0.92 -29.86,0.92 -29.4,0.92 -28.94,0.92 -28.47,0.92 -28.01,0.92 -27.55,-7.11 -27.08,-7.73 -26.62,-11.91 -26.16,-11.9 -25.69,-10.04 -25.23,-8.34 -24.77,-7.62 -24.31,-6.22 -23.84,-4.91 -23.38,-3.71 -22.92,-2.63 -22.45,-1.69 -21.99,-0.88 -21.53,-0.09 -21.07,0.73 -20.6,0.92 -20.14,0.92 -19.68,0.92 -19.21,0.92 -18.75,0.92 -18.29,0.92 -17.82,0.92 -17.36,0.92 -16.9,0.92 -16.44,0.92 -15.97,0.92 -15.51,0.92 -15.05,0.92 -14.58,0.92 -14.12,0.92 -13.66,0.92 -13.19,0.92 -12.73,0.92 -12.27,0.92 -11.81,0.92 -11.34,0.92 -10.88,0.92 -10.42,0.92 -9.95,0.92 -9.49,0.92 -9.03,0.92 -8.56,0.92 -8.1,0.92 -7.64,0.92 -7.18,0.92 -6.71,0.92 -6.25,0.92 -5.79,0.92 -5.32,0.92 -4.86,0.92 -4.4,0.92 -3.94,0.92 -3.47,0.92 -3.01,0.92 -2.55,0.92 -2.08,0.92 -1.62,0.92 -1.16,0.92 -0.69,0.92 -0.23,0.92 0.23,0.92 0.69,0.92 1.16,0.92 1.62,0.92 2.08,0.92 2.55,0.92 3.01,0.92 3.47,0.92 3.94,0.92 4.4,0.92 4.86,0.92 5.32,0.92 5.79,0.92 6.25,0.92 6.71,0.92 7.18,0.92 7.64,0.92 8.1,0.92 8.56,0.92 9.03,0.92 9.49,0.92 9.95,0.92 10.42,0.92 10.88,0.92 11.34,0.92 11.81,0.92 12.27,0.92 12.73,0.92 13.19,0.92 13.66,0.92 14.12,0.92 14.58,0.92 15.05,0.92 15.51,0.92 15.97,0.92 16.44,0.92 16.9,0.92 17.36,0.92 17.82,0.92 18.29,0.92 18.75,0.92 19.21,0.92 19.68,0.92 20.14,0.92 20.6,0.92 21.07,0.92 21.53,0.92 21.99,0.92 22.45,0.92 22.92,0.92 23.38,0.92 23.84,0.92 24.31,0.92 24.77,0.92 25.23,0.92 25.69,0.92 26.16,0.92 26.62,0.92 27.08,0.92 27.55,0.92 28.01,0.92 28.47,0.92 28.94,0.92 29.4,0.92 29.86,0.92 30.32,0.92 30.79,0.92 31.25,0.92 31.71,0.92 32.18,0.92 32.64,0.92 33.1,0.92 33.57,0.92 34.03,0.92 34.49,0.92 34.95,0.92 35.42,0.92 35.88,0.92 36.34,0.92 36.81,0.92 37.27,0.92 37.73,0.92 38.19,0.92 38.66,0.92 39.12,0.92 39.58,0.92 40.05,0.92 40.51,0.92 40.97,0.92 41.44,0.92 41.9,0.92 42.36,0.92 42.82,0.92 43.29,0.92 43.75,0.92 44.21,0.92 44.68,0.92 45.14,0.92 45.6,0.92 46.07,0.92 46.53,0.92 46.99,0.92 47.45,0.92 47.92,0.92 48.38,0.92 48.84,0.92 49.31,0.92 49.77,0.92 50.23,0.92 50.7,0.92 51.16,0.92 51.62,0.92 52.08,0.92 52.55,0.92 53.01,0.92 53.47,0.92 53.94,0.92 54.4,0.92 54.86,0.92 55.32,0.92 55.79,0.92 56.25,0.92 56.71,0.92 57.18,0.92 57.64,0.92 58.1,0.92 58.57,0.92 59.03,0.92 59.49,0.92 59.95,0.92 60.42,0.92 60.88,0.92 61.34,0.92 61.81,0.92 62.27,0.92 62.73,0.92 63.2,0.92 63.66,0.92 64.12,0.92 64.58,0.92 65.05,0.92 65.51,0.92 65.97,0.92 66.44,0.92 66.9,0.92 67.36,0.92 67.82,0.92 " class="primitive"/>
            </g>
          </g>
        </g>
      </g>
    </g>
  </g>
  <g class="guide ylabels" font-size="2.82" font-family="'PT Sans Caption','Helvetica Neue','Helvetica',sans-serif" fill="#6C606B" id="img-d8f84a4a-41">
    <g transform="translate(16.63,104.04)" id="img-d8f84a4a-42">
      <g class="primitive">
        <text text-anchor="end" dy="0.35em">0</text>
      </g>
    </g>
    <g transform="translate(16.63,44.14)" id="img-d8f84a4a-43">
      <g class="primitive">
        <text text-anchor="end" dy="0.35em">50</text>
      </g>
    </g>
  </g>
  <g font-size="3.53" font-family="'PT Sans','Helvetica Neue','Helvetica',sans-serif" fill="#564A55" stroke="#000000" stroke-opacity="0.000" id="img-d8f84a4a-44">
    <g transform="translate(8.64,53.52)" id="img-d8f84a4a-45">
      <g class="primitive">
        <text text-anchor="middle" dy="0.35em" transform="rotate(-90,0, 2)"> (mm d⁻¹)</text>
      </g>
    </g>
  </g>
</g>
<defs>
  <clipPath id="img-d8f84a4a-19">
    <path d="M17.63,5 L157.45,5 157.45,106.04 17.63,106.04 " />
  </clipPath>
</defs>
</svg>
